PathFileType	4	(X/Y/Z)	C:\Users\dbl\Desktop\20210112(1)\20210112\bx_y_5_501.trc
DataRate	CameraRate	NumFrames	NumMarkers	Units	OrigDataRate	OrigDataStartFrame	OrigNumFrames
50.00	50.00	       8	43	mm	50.00	195	       519
Frame#	Time	Top.Head			R.Acromium			L.Acromium			Sternum			R.ASIS			L.ASIS			V.Sacral			R.Thigh.Upper			R.Thigh.Front			R.Thigh.Rear			R.Knee.Lat			R.Knee.Med			R.Shank.Upper			R.Shank.Front			R.Shank.Rear			R.Ankle.Lat			R.Midfoot.Lat			R.Toe.Lat			R.Toe.Tip			R.Toe.Med			R.Ankle.Med			R.Midfoot.Sup			R.Heel			L.Thigh.Upper			L.Thigh.Front			L.Thigh.Rear			L.Knee.Lat			L.Knee.Med			L.Shank.Upper			L.Shank.Front			L.Shank.Rear			L.Ankle.Lat			L.Midfoot.Lat			L.Toe.Lat			L.Toe.Tip			L.Toe.Med			L.Ankle.Med			L.Midfoot.Sup			L.Heel			origin1 front left			origin2 front right			origin 3 back right			origin 4 back leftt			
		X1	Y1	Z1	X2	Y2	Z2	X3	Y3	Z3	X4	Y4	Z4	X5	Y5	Z5	X6	Y6	Z6	X7	Y7	Z7	X8	Y8	Z8	X9	Y9	Z9	X10	Y10	Z10	X11	Y11	Z11	X12	Y12	Z12	X13	Y13	Z13	X14	Y14	Z14	X15	Y15	Z15	X16	Y16	Z16	X17	Y17	Z17	X18	Y18	Z18	X19	Y19	Z19	X20	Y20	Z20	X21	Y21	Z21	X22	Y22	Z22	X23	Y23	Z23	X24	Y24	Z24	X25	Y25	Z25	X26	Y26	Z26	X27	Y27	Z27	X28	Y28	Z28	X29	Y29	Z29	X30	Y30	Z30	X31	Y31	Z31	X32	Y32	Z32	X33	Y33	Z33	X34	Y34	Z34	X35	Y35	Z35	X36	Y36	Z36	X37	Y37	Z37	X38	Y38	Z38	X39	Y39	Z39	X40	Y40	Z40	X41	Y41	Z41	X42	Y42	Z42	X43	Y43	Z43	

195	3.880	-591.61090	115.52270	1818.92102	-602.62604	-64.59046	1509.13220	-627.89874	293.86914	1507.11926	-587.77429	108.79150	1383.11243	-680.06812	-3.93712	1055.15588	-677.58215	223.01096	1068.15381	-881.87872	96.80212	1048.74463	-695.03845	-40.42020	837.55182	-664.88977	-6.93005	814.45184	-752.04156	-47.98705	707.68420	-758.14050	-25.22189	614.87915	-735.99945	81.06107	574.19299	-765.52075	-22.56274	567.50616	-709.26843	18.04219	525.25513	-804.25427	-32.14816	484.52817	-772.34894	-7.00294	204.83884	-667.07251	-69.89569	160.10291	-625.47058	-80.73373	158.37706	-562.92285	-41.78170	162.42555	-604.30890	17.06413	168.83167	-720.98810	74.52122	218.39877	-675.60370	53.67455	161.30975	-796.05725	54.54347	173.52567	-728.70251	283.78101	878.98114	-666.49670	220.18999	827.63818	-768.20105	276.30872	748.04480	-787.11523	253.30518	635.05035	-742.62762	147.69479	574.07568	-783.01025	249.39748	573.23206	-723.87982	209.39053	536.81384	-816.64441	258.25580	496.39862	-775.13196	225.57144	202.27823	-667.81903	301.31265	157.78186	-629.80170	308.68408	160.83763	-563.20135	262.57950	165.65479	-597.18665	226.18036	174.18825	-715.70294	156.35663	219.90865	-676.64117	176.06155	160.70747	-798.08331	174.48215	182.31558	-528.06506	303.88672	146.06252	-517.76550	-73.10509	142.55911	-876.01788	-78.86874	141.20560	-882.61487	295.99588	144.48378	
196	3.900	-600.48615	115.19698	1822.58044	-607.84442	-65.14367	1512.80261	-632.71552	293.53699	1510.29456	-590.03674	108.49899	1386.70349	-676.84418	-3.76481	1055.71912	-674.09503	223.36807	1068.97339	-878.56012	97.52369	1048.19897	-688.01813	-35.60258	833.86609	-662.20966	-7.03149	814.97455	-749.60504	-47.66655	707.82758	-756.16156	-24.93688	615.04028	-734.08325	81.41707	574.32129	-763.68439	-22.18113	567.65491	-707.65466	18.32854	525.23920	-802.92590	-31.78449	484.88565	-772.11816	-6.83096	204.89720	-667.02222	-69.80311	160.22650	-625.39209	-80.62140	158.40695	-562.78192	-41.82180	162.35509	-604.25592	17.12422	168.72601	-720.68982	74.56538	218.23824	-675.58722	53.75591	161.05356	-795.85834	54.70163	173.53935	-724.82574	284.10275	879.27759	-663.00763	220.25229	827.81677	-764.83435	276.54456	748.32410	-784.53876	253.46617	635.33508	-740.59656	147.83270	574.33728	-780.83234	249.56732	573.45087	-721.98926	209.34944	536.74841	-814.85376	258.37262	496.72266	-775.01300	225.48335	202.40216	-667.76990	301.23761	157.85318	-629.77319	308.65305	160.82410	-563.15857	262.71869	165.61012	-597.07654	226.10686	174.23326	-715.64752	156.18781	219.79111	-676.52728	175.92601	160.51877	-798.04657	174.63914	182.20708	-528.03918	303.90097	146.08968	-517.76093	-73.08691	142.56941	-876.03247	-78.85637	141.20381	-882.57343	296.01544	144.51392	
197	3.920	-608.94373	114.77589	1825.89355	-612.88470	-65.61870	1516.17175	-637.48096	293.21280	1513.26367	-592.32043	108.24160	1390.08350	-673.61047	-3.63254	1056.32715	-670.68890	223.87021	1069.70898	-875.43231	98.34073	1047.67847	-681.13397	-30.77635	830.20819	-659.56384	-6.99386	815.28107	-747.24438	-47.33299	707.91339	-754.17535	-24.69765	615.21332	-732.23157	81.77937	574.39429	-761.90515	-21.81843	567.79297	-706.07324	18.63869	525.20911	-801.62933	-31.44421	485.26355	-771.88580	-6.59675	204.94702	-666.99652	-69.78435	160.34532	-625.32507	-80.52940	158.44003	-562.67188	-41.86176	162.28142	-604.19482	17.20308	168.62714	-720.50342	74.63402	218.11259	-675.58838	53.82388	160.83899	-795.68457	54.82233	173.53723	-721.08215	284.45941	879.52441	-659.63989	220.28857	827.91223	-761.53723	276.76923	748.54388	-782.03101	253.66121	635.62238	-738.62000	148.01166	574.55939	-778.65796	249.74832	573.63922	-720.10278	209.35013	536.68414	-813.09662	258.48550	497.01657	-774.87299	225.43562	202.51938	-667.72131	301.15268	157.93288	-629.77985	308.63306	160.79317	-563.12384	262.85464	165.53738	-596.97565	226.04559	174.27113	-715.63739	156.03740	219.62364	-676.43768	175.79379	160.26732	-798.01691	174.78183	182.11014	-528.04364	303.92053	146.14938	-517.75964	-73.08998	142.61452	-876.02710	-78.86774	141.19014	-882.54761	296.03510	144.53769	
198	3.940	-616.91931	114.24194	1828.90479	-617.71051	-66.01018	1519.25110	-642.14520	292.96088	1516.05420	-594.56274	107.99033	1393.19360	-670.39246	-3.52344	1056.91260	-667.37048	224.60818	1070.23682	-872.43079	99.10828	1047.24768	-674.44635	-26.03356	826.65363	-656.95337	-6.83560	815.39990	-744.98444	-46.98714	708.00427	-752.14728	-24.51847	615.42688	-730.42706	82.10640	574.45038	-760.19305	-21.51675	567.93396	-704.52448	18.96464	525.13745	-800.30194	-31.10922	485.61505	-771.62469	-6.35583	205.01709	-666.97162	-69.79674	160.44406	-625.28833	-80.47816	158.46680	-562.59589	-41.90461	162.21802	-604.10791	17.28167	168.56805	-720.42242	74.75999	217.99268	-675.57043	53.87191	160.67966	-795.57507	54.89389	173.54431	-717.51245	284.70340	879.63812	-656.34998	220.28917	827.91125	-758.31738	276.99072	748.72888	-779.53137	253.89586	635.91412	-736.67377	148.17271	574.73444	-776.50177	249.95064	573.82770	-718.21942	209.39404	536.64081	-811.34839	258.67447	497.33203	-774.70374	225.43495	202.63037	-667.67035	301.05576	158.04028	-629.80322	308.61432	160.76776	-563.08575	262.96719	165.47719	-596.88074	225.98871	174.27553	-715.61652	155.91924	219.48972	-676.40137	175.69865	159.99083	-797.92444	174.78592	182.16747	-528.04846	303.91812	146.19324	-517.76410	-73.12791	142.66544	-875.99768	-78.89507	141.17729	-882.54584	296.04840	144.54399	
199	3.960	-624.44873	113.61454	1831.66125	-622.35889	-66.36414	1522.08960	-646.65796	292.80304	1518.66602	-596.70215	107.70873	1396.07544	-667.20917	-3.40656	1057.40137	-664.13507	225.52190	1070.49390	-869.50940	99.72046	1046.92017	-668.01477	-21.46602	823.27838	-654.37891	-6.57591	815.36444	-742.81415	-46.63841	708.16101	-750.17639	-24.34382	615.62665	-728.69763	82.38023	574.54877	-758.56525	-21.26694	568.04657	-703.03290	19.28037	525.01563	-798.97498	-30.79009	485.92300	-771.36707	-6.16004	205.12843	-666.93646	-69.80848	160.51541	-625.28119	-80.45503	158.48410	-562.54596	-41.95371	162.18062	-604.00342	17.35165	168.55412	-720.36047	74.95428	217.88651	-675.53326	53.90421	160.55692	-795.53564	54.94295	173.56972	-714.16284	284.74072	879.55432	-653.11237	220.28503	827.84473	-755.17773	277.19458	748.89526	-777.02905	254.15134	636.18683	-734.76019	148.27576	574.90106	-774.41150	250.11697	573.99603	-716.40387	209.48082	536.61035	-809.63525	258.93954	497.69638	-774.54126	225.46350	202.73817	-667.62134	300.95935	158.16573	-629.81793	308.59167	160.77562	-563.03894	263.04916	165.45700	-596.79578	225.94490	174.22916	-715.54718	155.84602	219.44318	-676.39172	175.60184	159.75826	-797.74512	174.66895	182.36696	-528.02319	303.87167	146.20602	-517.77606	-73.17979	142.68568	-875.95135	-78.93191	141.17375	-882.55286	296.04333	144.52884	
200	3.980	-631.59692	112.96136	1834.18982	-626.88739	-66.72369	1524.73132	-651.01685	292.69339	1521.09009	-598.73376	107.40520	1398.78210	-664.07294	-3.26314	1057.76147	-660.98315	226.47401	1070.50916	-866.65051	100.17075	1046.64294	-661.89935	-17.16697	820.16101	-651.83948	-6.23036	815.20172	-740.70416	-46.27999	708.40259	-748.35669	-24.11774	615.75940	-727.07153	82.61494	574.67761	-757.01990	-21.04238	568.14478	-701.63702	19.55744	524.84113	-797.72949	-30.49030	486.18491	-771.18018	-6.02096	205.28033	-666.89532	-69.81297	160.57336	-625.29309	-80.44386	158.49916	-562.51776	-42.01928	162.16837	-603.90668	17.42267	168.54811	-720.24182	75.19907	217.81201	-675.49139	53.93767	160.46500	-795.53876	54.99950	173.61305	-711.03625	284.63486	879.32642	-649.93378	220.33890	827.78180	-752.16626	277.32654	749.05402	-774.59863	254.40205	636.41736	-732.89801	148.32878	575.06696	-772.42676	250.19987	574.13824	-714.71356	209.59789	536.57025	-808.00653	259.17371	498.07156	-774.42810	225.48965	202.85493	-667.58337	300.88141	158.26749	-629.80939	308.56631	160.82957	-563.00153	263.10727	165.46245	-596.72314	225.91354	174.14935	-715.43738	155.81097	219.45107	-676.36902	175.44922	159.58850	-797.53571	174.58073	182.53233	-527.96442	303.79248	146.20143	-517.79474	-73.20369	142.67415	-875.90979	-78.97062	141.17834	-882.56268	296.02646	144.50276	
201	4.000	-638.38696	112.34733	1836.49207	-631.28864	-67.07184	1527.19153	-655.22852	292.58090	1523.32153	-600.72290	107.12098	1401.32520	-660.99365	-3.08988	1057.99817	-657.91687	227.33420	1070.38745	-863.82410	100.54517	1046.35986	-656.16394	-13.23519	817.38568	-649.33307	-5.81154	814.93225	-738.62878	-45.92548	708.71008	-746.65753	-23.85978	615.85156	-725.51178	82.83214	574.77661	-755.51715	-20.83058	568.28162	-700.34509	19.77079	524.63782	-796.60236	-30.21305	486.40976	-771.08093	-5.91479	205.45894	-666.86224	-69.80157	160.63205	-625.31329	-80.44365	158.51532	-562.50946	-42.09940	162.16374	-603.82385	17.50269	168.50853	-720.07599	75.46230	217.75230	-675.44989	53.97684	160.41118	-795.52960	55.07825	173.66487	-708.05457	284.56311	879.11115	-646.82104	220.52184	827.79358	-749.34222	277.37082	749.21057	-772.32959	254.64525	636.61328	-731.09003	148.37079	575.19318	-770.57336	250.21791	574.28253	-713.13544	209.70984	536.51733	-806.50104	259.26437	498.39856	-774.37317	225.49307	202.97966	-667.56232	300.83167	158.32207	-629.78290	308.53934	160.90547	-562.99170	263.14975	165.46584	-596.66235	225.86725	174.07422	-715.30890	155.79579	219.43518	-676.32483	175.24245	159.43527	-797.36786	174.61926	182.52051	-527.89441	303.71829	146.19646	-517.81555	-73.17648	142.67239	-875.88928	-78.99825	141.17789	-882.58173	296.01505	144.47835	
202	4.020	-644.81512	111.77532	1838.56177	-635.52417	-67.36513	1529.46338	-659.27917	292.44916	1525.36792	-602.74432	106.88538	1403.72314	-657.98077	-2.89181	1058.13354	-654.93542	228.00131	1070.26990	-860.99506	100.95063	1046.06897	-650.88049	-9.77946	815.04364	-646.85712	-5.33083	814.57397	-736.58691	-45.62523	709.02789	-744.99622	-23.61973	615.96295	-723.95215	83.04839	574.82574	-754.00439	-20.61794	568.46136	-699.09387	19.91580	524.46246	-795.51965	-29.96502	486.61005	-771.02069	-5.81249	205.64912	-666.84827	-69.75737	160.68375	-625.33246	-80.44370	158.53427	-562.50842	-42.16842	162.14600	-603.75299	17.58179	168.41867	-719.92346	75.71272	217.65709	-675.41504	54.00798	160.39224	-795.47150	55.18805	173.70454	-705.11053	284.66580	879.01202	-643.78131	220.86307	827.88989	-746.69910	277.39026	749.35242	-770.25433	254.88898	636.79065	-729.31580	148.42358	575.25610	-768.85791	250.21175	574.43976	-711.60876	209.79251	536.47217	-805.12067	259.19745	498.67072	-774.35181	225.47215	203.09547	-667.55890	300.80914	158.34488	-629.75891	308.51511	160.95558	-562.99463	263.18430	165.46147	-596.62103	225.78999	174.02641	-715.16278	155.78372	219.34795	-676.26923	175.03764	159.25093	-797.25732	174.73869	182.36095	-527.85034	303.68570	146.19826	-517.82635	-73.10903	142.70261	-875.87555	-79.00045	141.13892	-882.60663	296.01404	144.46252	
